# xmcd CD database file
#
# Track frame offsets:
#	150
#	30393
#	62274
#	88849
#	117993
#	150734
#	182775
#	215076
#
# Disc length: 3568 seconds
#
# Revision: 1
# Processed by: cddbd v1.5.2PL0 Copyright (c) Steve Scherf et al.
# Submitted via: CDex 1.70beta2
#
DISCID=660dee08
DTITLE=Michel Petrucciani, Niels-Henning Orsted Pedersen - Michel Petrucciani Niels-Henning Orsted Pedersen [CD1]
DYEAR=1994
DGENRE=Jazz
TTITLE0=All The Things You Are
TTITLE1=I Can't Get Started
TTITLE2=Oleo
TTITLE3=All Blues
TTITLE4=Beautiful Love
TTITLE5=Someday My Prince Will Come
TTITLE6=Billie's Bounce
TTITLE7=Autumn Leaves
EXTD=YEAR: 1994
EXTT0=
EXTT1=
EXTT2=
EXTT3=
EXTT4=
EXTT5=
EXTT6=
EXTT7=
PLAYORDER=
